<svg width="250" height="113" viewBox="0 0 250 113" fill="none" xmlns="http://www.w3.org/2000/svg">
<g clip-path="url(#clip0_151_3)">
<mask id="mask0_151_3" style="mask-type:luminance" maskUnits="userSpaceOnUse" x="0" y="0" width="250" height="113">
<path d="M250 0H0V113H250V0Z" fill="white"/>
</mask>
<g mask="url(#mask0_151_3)">
<path d="M129.113 73.3214C128.441 71.7953 128.105 70.6083 127.769 69.7605C127.434 68.9126 126.93 68.0648 126.426 67.2169C125.923 66.3691 125.251 65.8604 124.244 65.3517C123.404 64.843 122.397 64.5039 121.053 64.5039C119.71 64.5039 118.703 64.843 117.696 65.3517C116.856 65.8604 116.184 66.3691 115.681 67.2169C115.177 68.0648 114.673 69.0822 114.17 70.2692C113.666 71.4561 113.33 72.6431 112.826 73.491L101.074 103.843C100.57 105.03 100.234 106.048 100.066 106.726C99.73 107.404 99.73 108.083 99.73 108.761C99.73 109.778 100.066 110.796 101.074 111.644C101.913 112.491 103.088 113 104.264 113C105.607 113 106.614 112.491 107.118 111.644C107.79 110.965 108.629 109.27 109.469 106.896L111.651 100.961L114.17 93.8392L120.886 74.5084L127.937 93.8392L130.456 100.961L132.638 106.896L133.814 109.439C134.15 110.287 134.485 110.965 134.989 111.474C135.325 111.983 135.661 112.322 136.164 112.491C136.836 112.83 137.34 113 138.179 113C139.354 113 140.53 112.491 141.369 111.644C142.377 110.796 142.712 109.778 142.712 108.591C142.712 107.574 142.209 105.878 141.369 103.674L129.113 73.3214Z" fill="#0B103A"/>
<path d="M29.55 73.3214L28.039 69.7605C27.7032 68.9126 27.1995 68.0648 26.6958 67.2169C26.1921 66.3691 25.5205 65.8604 24.5131 65.3517C23.6736 64.843 22.6662 64.5039 21.323 64.5039C19.9799 64.5039 18.9725 64.843 18.133 65.3517C17.1256 65.8604 16.454 66.3691 15.9503 67.2169C15.4466 68.0648 14.9429 69.0822 14.4392 70.2692C13.9355 71.4561 13.5997 72.6431 13.2639 73.491L1.3432 103.843C0.839501 105.03 0.5037 106.048 0.3358 106.726C1.78814e-07 107.404 0 108.083 0 108.761C0 109.778 0.503701 110.796 1.3432 111.644C2.1827 112.491 3.358 113 4.5332 113C5.8764 113 6.8838 112.491 7.5554 111.644C8.0591 110.965 8.8986 109.27 9.7381 106.896L11.9208 100.961L14.4392 93.8392L21.323 74.5084L28.2069 93.8392L30.7253 100.961L32.908 106.896L34.0833 109.439C34.4191 110.287 34.9228 110.965 35.2586 111.474C35.5944 111.983 35.9302 112.322 36.6017 112.491C37.1054 112.83 37.6091 113 38.4486 113C39.6239 113 40.7992 112.491 41.6387 111.644C42.6461 110.796 42.9819 109.778 42.9819 108.591C42.9819 107.574 42.4782 105.878 41.6387 103.674L29.55 73.3214Z" fill="#0B103A"/>
<path d="M88.9869 105.539C88.3149 104.691 87.1399 104.352 85.6289 104.352H66.4879V70.2692C66.4879 68.4039 65.9849 66.8778 65.3129 66.03C64.3059 65.0126 63.2979 64.5039 61.7869 64.5039C60.4439 64.5039 59.2689 65.0126 58.4289 66.03C57.5899 66.8778 57.0859 68.4039 57.0859 70.2692V106.387C57.0859 108.422 57.5899 109.948 58.4289 110.796C59.4369 111.644 60.7799 112.152 62.9619 112.152H85.6289C87.1399 112.152 88.3149 111.813 89.1539 111.135C89.8259 110.457 90.3299 109.439 90.3299 108.252C90.3299 107.235 89.8259 106.217 88.9869 105.539Z" fill="#0B103A"/>
<path d="M245.634 64.5039C244.291 64.5039 243.283 65.0126 242.612 65.8604C241.772 66.7082 241.436 68.0648 241.436 69.93V97.9092L223.303 70.2692C222.8 69.4213 222.296 68.5735 221.792 67.8952C221.457 67.0474 220.953 66.5387 220.449 66.03C219.946 65.5213 219.442 65.1821 218.938 64.843C218.267 64.6734 217.595 64.5039 216.755 64.5039C215.58 64.5039 214.573 64.843 213.733 65.3517C212.726 66.03 212.054 66.8778 211.719 67.7256C211.383 68.5735 211.215 69.7605 211.215 71.4561V107.574C211.215 109.27 211.551 110.626 212.39 111.644C213.23 112.491 214.237 113 215.58 113C216.923 113 217.931 112.491 218.77 111.644C219.61 110.626 219.946 109.27 219.946 107.574V80.1042L237.575 107.404L239.086 109.609C239.59 110.287 240.261 110.965 240.765 111.474C241.436 111.983 241.94 112.322 242.612 112.661C243.283 112.83 244.123 113 244.962 113C248.32 113 249.999 110.965 249.999 106.896V69.93C249.999 68.2344 249.663 66.8778 248.824 65.8604C247.984 65.0126 246.977 64.5039 245.634 64.5039Z" fill="#0B103A"/>
<path d="M183.177 73.3214C182.505 71.7953 182.17 70.6083 181.834 69.7605C181.498 68.9126 180.994 68.0648 180.491 67.2169C179.987 66.3691 179.148 65.8604 178.308 65.3517C177.469 64.843 176.293 64.5039 175.118 64.5039C173.775 64.5039 172.599 64.843 171.76 65.3517C170.921 65.8604 170.249 66.3691 169.745 67.2169C169.074 68.0648 168.738 69.0822 168.234 70.2692L166.891 73.491L155.138 103.843C154.634 105.03 154.299 106.048 153.963 106.726C153.795 107.404 153.795 108.083 153.795 108.761C153.795 109.778 154.131 110.796 155.138 111.644C155.978 112.491 156.985 113 158.16 113C159.671 113 160.679 112.491 161.182 111.644C161.854 110.965 162.358 109.27 163.365 106.896L165.716 100.961L168.066 93.8392L174.95 74.5084L182.002 93.8392L184.52 100.961L186.703 106.896L187.878 109.439C188.214 110.287 188.55 110.965 188.886 111.474C189.389 111.983 189.725 112.322 190.229 112.491C190.732 112.83 191.404 113 192.244 113C193.419 113 194.594 112.491 195.434 111.644C196.273 110.796 196.777 109.778 196.777 108.591C196.777 107.574 196.105 105.878 195.266 103.674L183.177 73.3214Z" fill="#0B103A"/>
<path d="M82.2689 10.0045C84.9559 10.0045 87.3059 7.6306 87.3059 4.9175C87.3059 2.2044 84.9559 0 82.2689 0C79.5829 0 77.3999 2.2044 77.3999 4.9175C77.3999 7.6306 79.5829 10.0045 82.2689 10.0045Z" fill="#0B103A"/>
<path d="M118.704 10.5133C118.704 8.13929 120.551 7.12189 122.902 7.12189C128.106 7.12189 129.785 11.022 134.99 11.022C139.859 11.022 142.21 7.46099 142.21 4.06969C142.21 3.05229 142.042 2.20439 141.706 1.35659H140.195C139.859 3.90009 137.509 4.06969 135.158 4.06969C131.296 4.06969 127.771 0.508789 123.909 0.508789C119.208 0.508789 116.521 3.73059 116.521 7.46099C116.521 8.47849 116.857 9.49589 117.193 10.5133H118.704Z" fill="#0B103A"/>
<path d="M156.312 0C153.122 0 151.611 1.6957 151.611 5.7653V39.8484H135.157V20.5177C135.157 16.7872 133.478 14.7524 130.792 14.7524C128.105 14.7524 126.426 16.4481 126.426 20.5177V39.8484H113.498C111.987 39.8484 110.812 40.1876 110.14 41.0354C109.301 41.7137 108.797 42.7311 108.797 43.7485C108.797 44.9355 109.301 45.9529 109.972 46.6312C110.812 47.3094 111.987 47.6486 113.498 47.6486H150.268C156.984 47.6486 161.013 45.2746 161.013 36.4571V5.7653C161.013 2.0348 159.334 0 156.312 0Z" fill="#0B103A"/>
<path d="M181.162 0C177.972 0 176.461 1.6957 176.461 5.7653V42.392C176.461 44.5963 176.965 46.1224 177.636 46.9703C178.644 47.9877 179.651 48.4964 181.162 48.4964C182.505 48.4964 183.681 47.9877 184.52 46.9703C185.36 46.1224 185.863 44.5963 185.863 42.7311V5.7653C185.863 2.0348 184.184 0 181.162 0Z" fill="#0B103A"/>
<path d="M95.534 14.9219C93.351 14.9219 91.168 16.1089 91.168 20.5176V32.2178C91.168 39.0005 87.978 41.2049 82.102 41.2049C77.233 41.2049 72.867 40.3571 72.867 32.557V20.5176C72.867 16.1089 70.685 14.9219 68.502 14.9219C66.319 14.9219 64.137 16.1089 64.137 20.5176V32.557C64.137 41.3745 69.342 48.4963 82.102 48.4963C95.03 48.4963 99.899 41.8832 99.899 32.557V20.5176C99.899 16.1089 97.716 14.9219 95.534 14.9219Z" fill="#0B103A"/>
</g>
</g>
<defs>
<clipPath id="clip0_151_3">
<rect width="250" height="113" fill="white"/>
</clipPath>
</defs>
</svg>
